# xmcd
#
# Track frame offsets:
#	150
#	13380
#	29187
#	44847
#	59600
#	71562
#	86135
#	97570
#	111147
#	124595
#	137892
#	150797
#	162935
#	176515
#
# Disc length: 2584 seconds
#
# Revision: 2
# Processed by: cddbd v1.5.2PL0 Copyright (c) Steve Scherf et al.
# Submitted via: audiograbber 1.83.01
#
DISCID=bf0a160e
DTITLE=Various Artist - Mr.Music Country 02-93
DYEAR=1993
DGENRE=Country
TTITLE0=Angie Welch - Love Please Come Home
TTITLE1=Don Edwards - The Master's Call
TTITLE2=Michael Martin Murphey and Tammy Wynette - Home On The Range
TTITLE3=Martin Delray - Twang
TTITLE4=Chris Wall - Hangin' Out
TTITLE5=Holly Dunn - My Old Love In New Mexico
TTITLE6=Dwight Yoakam - It Only Hurts When I Cry
TTITLE7=Ray Kennedy - No Way Jose
TTITLE8=Molly and The Heymakers - This Time
TTITLE9=Billy Joe Royal - It Keeps Right On Hurtin'
TTITLE10=Jim Lauderdale - I Wasn't Fooling Around
TTITLE11=Donna Ulisse - When Was The Last Time
TTITLE12=Aaron Barker - The Taste Of Freedom
TTITLE13=Dawn Sears - Could Be The Mississippi
EXTD=
EXTT0=
EXTT1=
EXTT2=
EXTT3=
EXTT4=
EXTT5=
EXTT6=
EXTT7=
EXTT8=
EXTT9=
EXTT10=
EXTT11=
EXTT12=
EXTT13=
PLAYORDER=
